# xmcd
#
# Track frame offsets:
#	150
#	15607
#	30085
#	43260
#	59722
#	73607
#	87815
#	102320
#	114567
#	130120
#	143770
#	157647
#	170742
#	186270
#	201860
#	213801
#	226438
#	239373
#
# Disc length: 3384 seconds
#
# Revision: 2
# Processed by: cddbd v1.5.1PL2 Copyright (c) Steve Scherf et al.
# Submitted via: audiograbber 1.83.01
#
DISCID=f30d3612
DTITLE=Percy Faith - I think I love you
DYEAR=2004
DGENRE=
TTITLE0=Everythings alright
TTITLE1=(Where do I begin) Love story
TTITLE2=Love the one you're with
TTITLE3=He ain't heavy, he's my brother
TTITLE4=Easy days - Easy nights
TTITLE5=The green grass starts to grow
TTITLE6=I don't know how to love him
TTITLE7=I think I love you
TTITLE8=My sweet lord
TTITLE9=Rose garden
TTITLE10=Don't say goodbye
TTITLE11=The time for love is anytime
TTITLE12=Peppermint Hill and Strawberry Lane
TTITLE13=Theme for young lovers
TTITLE14=Anytime of the year
TTITLE15=The Godfather Waltz
TTITLE16=Life is what you make it
TTITLE17=Emmanuelle - The joys of a woman
EXTD=
EXTT0=
EXTT1=
EXTT2=
EXTT3=
EXTT4=
EXTT5=
EXTT6=
EXTT7=
EXTT8=
EXTT9=
EXTT10=
EXTT11=
EXTT12=
EXTT13=
EXTT14=
EXTT15=
EXTT16=
EXTT17=
PLAYORDER=
